<svg
    xmlns="http://www.w3.org/2000/svg"
    xmlns:xlink="http://www.w3.org/1999/xlink" width="512" height="512">
    <defs>
        <path vector-effect="non-scaling-stroke" id="a" d="M239.313.5c-57.21 0-97.044 8.67-132.67 27.723-33.808 18.081-60.339 44.612-78.42 78.42C9.17 142.27.5 182.104.5 239.314v33.374c0 57.21 8.67 97.044 27.723 132.67 18.081 33.808 44.612 60.339 78.42 78.42 35.626 19.053 75.46 27.723 132.67 27.723h33.374c57.21 0 97.044-8.67 132.67-27.723 33.808-18.081 60.339-44.612 78.42-78.42 19.053-35.626 27.723-75.46 27.723-132.67v-33.374c0-57.21-8.67-97.044-27.723-132.67-18.081-33.808-44.612-60.339-78.42-78.42C369.73 9.17 329.896.5 272.686.5h-33.374z"/>
        <clipPath id="b">
            <use xlink:href="#a"/>
        </clipPath>
    </defs>
    <use xlink:href="#a" stroke="#000" stroke-opacity=".125" stroke-width="2" vector-effect="non-scaling-stroke" fill="none" clip-path="url(#b)"/>
</svg>
