<svg width="512" height="512" xmlns="http://www.w3.org/2000/svg"><path d="M41.022 0h429.956c14.264 0 19.437 1.485 24.652 4.274 5.214 2.789 9.307 6.882 12.096 12.096C510.515 21.585 512 26.758 512 41.022v429.956c0 14.264-1.485 19.437-4.274 24.652-2.789 5.214-6.882 9.307-12.096 12.096-5.215 2.789-10.388 4.274-24.652 4.274H41.022c-14.264 0-19.437-1.485-24.652-4.274-5.214-2.789-9.307-6.882-12.096-12.096C1.485 490.415 0 485.242 0 470.978V41.022C0 26.758 1.485 21.585 4.274 16.37c2.789-5.214 6.882-9.307 12.096-12.096C21.585 1.485 26.758 0 41.022 0z" fill="#000" fill-rule="evenodd"/></svg>