<svg
    xmlns="http://www.w3.org/2000/svg"
    xmlns:xlink="http://www.w3.org/1999/xlink" width="512" height="512">
    <defs>
        <path vector-effect="non-scaling-stroke" id="a" d="M511.5 159.656V141.84c0-4.267-.053-7.896-.2-15.402-.355-13.268-1.21-23.66-2.992-33.56-2.043-11.55-5.396-21.864-10.454-31.892a103.956 103.956 0 0 0-19.708-27.099c-7.967-7.975-17.125-14.649-27.073-19.727-9.86-5.031-20.237-8.404-31.862-10.464-9.889-1.783-20.27-2.64-34.011-3.495l.49.5c-4.11-.079-5.624-.107-7.747-.137A526.624 526.624 0 0 0 370.2.5H141.9c-2.41 0-4.909.021-7.743.063-2.123.03-3.636.058-7.257-.363l-.487.5c-13.255.355-23.635 1.212-33.526 2.995C81.348 5.74 71.044 9.097 61.026 14.16a103.862 103.862 0 0 0-27.072 19.726c-7.967 7.975-14.635 17.142-19.71 27.102-5.07 9.86-8.516 20.28-10.552 31.691-1.782 9.899-2.637 20.29-2.992 33.554-.147 7.51-.2 11.139-.2 15.405v228.523c0 4.267.053 7.896.2 15.402.355 13.268 1.21 23.66 2.992 33.56 2.058 11.634 5.427 22.022 10.454 31.892 5.013 9.936 11.64 19.023 19.708 27.099 7.967 7.975 17.125 14.649 27.073 19.727 9.86 5.031 20.237 8.404 31.862 10.464 9.889 1.783 20.27 2.64 33.52 2.995 7.506.147 11.145.2 15.491.2h228.3c2.41 0 4.909-.021 7.743-.063 2.123-.03 3.636-.058 7.745-.137 13.255-.355 23.635-1.212 33.525-2.995 11.539-2.045 21.843-5.402 31.861-10.465a103.862 103.862 0 0 0 27.072-19.726c7.967-7.975 14.635-17.142 19.708-27.1 5.027-9.869 8.396-20.257 10.454-31.893 1.782-9.899 2.637-20.29 2.992-33.554.147-7.51.2-11.139.2-15.406v-9.158-201.347h.1zM385.588 511.3h.002-.003.001z"/>
        <clipPath id="b">
            <use xlink:href="#a"/>
        </clipPath>
    </defs>
    <use xlink:href="#a" stroke="#000" stroke-opacity=".125" stroke-width="2" vector-effect="non-scaling-stroke" fill="none" clip-path="url(#b)"/>
</svg>
