<svg width="512" height="512" xmlns="http://www.w3.org/2000/svg"><path d="M239.313 0h33.374c59.92 0 99.009 9.654 132.905 27.782s60.498 44.73 78.626 78.626C502.346 140.304 512 179.392 512 239.313v33.374c0 59.92-9.654 99.009-27.782 132.905s-44.73 60.498-78.626 78.626C371.696 502.346 332.608 512 272.687 512h-33.374c-59.92 0-99.009-9.654-132.905-27.782s-60.498-44.73-78.626-78.626C9.654 371.696 0 332.608 0 272.687v-33.374c0-59.92 9.654-99.009 27.782-132.905s44.73-60.498 78.626-78.626C140.304 9.654 179.392 0 239.313 0z" fill="#000" fill-rule="evenodd"/></svg>