<svg
    xmlns="http://www.w3.org/2000/svg"
    xmlns:xlink="http://www.w3.org/1999/xlink" width="512" height="512">
    <defs>
        <path vector-effect="non-scaling-stroke" id="a" d="M41.022.5C28.092.5 22.45 1.59 16.606 4.715 11.48 7.457 7.457 11.479 4.715 16.606 1.59 22.45.5 28.093.5 41.022v429.956c0 12.93 1.09 18.572 4.215 24.416 2.742 5.127 6.764 9.149 11.891 11.891 5.844 3.125 11.487 4.215 24.416 4.215h429.956c12.93 0 18.572-1.09 24.416-4.215 5.127-2.742 9.149-6.764 11.891-11.891 3.125-5.844 4.215-11.487 4.215-24.416V41.022c0-12.93-1.09-18.572-4.215-24.416-2.742-5.127-6.764-9.149-11.891-11.891C489.55 1.59 483.907.5 470.978.5H41.022z" />
        <clipPath id="b">
            <use xlink:href="#a"/>
        </clipPath>
    </defs>
    <use xlink:href="#a" stroke="#000" stroke-opacity=".125" stroke-width="2" vector-effect="non-scaling-stroke" fill="none" clip-path="url(#b)"/>
</svg>
