<svg width="512" height="512" xmlns="http://www.w3.org/2000/svg"><path d="M512 160.156V141.84c0-5.105-.1-10.31-.2-15.416-.3-11.21-1-22.522-3-33.632-2-11.311-5.3-21.722-10.5-32.032a104.45 104.45 0 0 0-19.8-27.226c-8-8.008-17.2-14.715-27.2-19.82-10.2-5.205-20.7-8.508-32-10.51C408.2 1.201 396.9.5 385.7.2c-5.2-.1-10.3-.2-15.5-.2H141.9c-5.2 0-10.3.1-15.5.2-11.2.3-22.5 1.001-33.6 3.003-11.3 2.002-21.7 5.305-32 10.51a104.357 104.357 0 0 0-27.2 19.82c-8 8.008-14.7 17.217-19.8 27.226C8.6 70.87 5.2 81.38 3.2 92.59c-2 11.111-2.7 22.422-3 33.633-.1 5.105-.2 10.31-.2 15.415V370.161c0 5.105.1 10.31.2 15.416.3 11.21 1 22.522 3 33.632 2 11.311 5.3 21.822 10.5 32.032 5.1 10.11 11.8 19.218 19.8 27.226s17.2 14.715 27.2 19.82c10.2 5.205 20.7 8.508 32 10.51 11.1 2.002 22.4 2.703 33.6 3.003 5.1.1 10.3.2 15.5.2h228.3c5.2 0 10.3-.1 15.5-.2 11.2-.3 22.5-1.001 33.6-3.003 11.3-2.002 21.7-5.305 32-10.51a104.357 104.357 0 0 0 27.2-19.82c8-8.008 14.7-17.217 19.8-27.226 5.2-10.21 8.5-20.72 10.5-32.032 2-11.11 2.7-22.422 3-33.632.1-5.105.2-10.31.2-15.416V160.156h.1z" fill="#301919" fill-rule="nonzero"/></svg>