<svg xmlns="http://www.w3.org/2000/svg" xmlns:xlink="http://www.w3.org/1999/xlink" width="512" height="512"><defs><path vector-effect="non-scaling-stroke" id="a" d="M512 160.2v-18.3c0-5.1-.1-10.3-.2-15.4-.3-11.2-1-22.5-3-33.6-2-11.3-5.3-21.7-10.5-32-5.1-10.1-11.8-19.3-19.8-27.2-8-8-17.2-14.7-27.2-19.8-10.2-5.2-20.7-8.5-32-10.5-11.1-2-22.4-2.7-33.6-3-5.2-.1-10.3-.2-15.5-.2H141.9c-5.2 0-10.3.1-15.5.2-11.2.3-22.5 1-33.6 3-11.3 2-21.7 5.3-32 10.5C50.7 19 41.5 25.7 33.6 33.7c-8 8-14.7 17.2-19.8 27.2C8.6 71 5.2 81.5 3.2 92.7c-2 11.1-2.7 22.4-3 33.6-.1 5.1-.2 10.3-.2 15.4V370c0 5.1.1 10.3.2 15.4.3 11.2 1 22.5 3 33.6 2 11.3 5.3 21.8 10.5 32 5.1 10.1 11.8 19.2 19.8 27.2s17.2 14.7 27.2 19.8c10.2 5.2 20.7 8.5 32 10.5 11.1 2 22.4 2.7 33.6 3 5.1.1 10.3.2 15.5.2h228.3c5.2 0 10.3-.1 15.5-.2 11.2-.3 22.5-1 33.6-3 11.3-2 21.7-5.3 32-10.5 10.1-5.1 19.3-11.8 27.2-19.8 8-8 14.7-17.2 19.8-27.2 5.2-10.2 8.5-20.7 10.5-32 2-11.1 2.7-22.4 3-33.6.1-5.1.2-10.3.2-15.4V160.2z"/><clipPath id="b"><use xlink:href="#a"/></clipPath></defs><use xlink:href="#a" stroke="#000" stroke-opacity=".125" stroke-width="2" vector-effect="non-scaling-stroke" fill="none" clip-path="url(#b)"/></svg>