<svg xmlns="http://www.w3.org/2000/svg" width="512" height="512"><path d="M512 160.162c0-6.118 0-12.228-.034-18.347a776.82 776.82 0 0 0-.23-15.445c-.3-11.221-.965-22.536-2.953-33.63-2.022-11.264-5.325-21.743-10.539-31.974a107.427 107.427 0 0 0-19.78-27.23 107.634 107.634 0 0 0-27.23-19.78c-10.223-5.206-20.702-8.508-31.957-10.53C408.175 1.229 396.86.572 385.638.265c-5.154-.137-10.3-.197-15.453-.23C364.075 0 357.956 0 351.838 0H160.162c-6.11 0-12.228 0-18.338.034-5.154.034-10.308.094-15.454.23-11.221.308-22.545.965-33.638 2.962-11.256 2.022-21.735 5.324-31.958 10.53a107.483 107.483 0 0 0-27.23 19.78 107.427 107.427 0 0 0-19.78 27.23C8.55 70.997 5.248 81.476 3.226 92.74 1.237 103.834.572 115.15.273 126.37c-.136 5.146-.205 10.3-.23 15.445C0 147.934 0 154.044 0 160.162v191.676c0 6.118 0 12.228.043 18.347.025 5.145.094 10.3.23 15.445.299 11.221.964 22.536 2.953 33.63 2.022 11.264 5.324 21.751 10.538 31.983a107.339 107.339 0 0 0 19.78 27.212 107.102 107.102 0 0 0 27.23 19.79c10.223 5.205 20.702 8.507 31.958 10.53 11.093 1.988 22.417 2.662 33.638 2.96 5.146.137 10.3.197 15.454.23 6.11.035 12.228.035 18.338.035h191.676c6.118 0 12.237 0 18.347-.034 5.154-.034 10.3-.094 15.453-.23 11.222-.3 22.537-.973 33.639-2.962 11.255-2.022 21.734-5.324 31.957-10.53a107.252 107.252 0 0 0 27.23-19.789 107.339 107.339 0 0 0 19.78-27.212c5.214-10.232 8.517-20.72 10.539-31.983 1.988-11.094 2.654-22.409 2.952-33.63.137-5.146.197-10.3.23-15.445.035-6.119.035-12.229.035-18.347V160.162z"/></svg>