<?xml version="1.0" encoding="utf-8"?>
<svg version="1.1" xmlns="http://www.w3.org/2000/svg" xmlns:xlink="http://www.w3.org/1999/xlink" x="0px" y="0px"
	 width="512px" height="512px" viewBox="0 0 512 512" enable-background="new 0 0 512 512" xml:space="preserve">
<defs>
	<path vector-effect="non-scaling-stroke" id="ld" d="M512,160.2
	c0-6.1,0-12.2,0-18.3c0-5.1-0.1-10.3-0.2-15.4c-0.3-11.2-1-22.5-3-33.6c-2-11.3-5.3-21.7-10.5-32c-5.1-10.1-11.8-19.3-19.8-27.2
	c-8-8-17.2-14.7-27.2-19.8c-10.2-5.2-20.7-8.5-32-10.5c-11.1-2-22.4-2.7-33.6-3c-5.2-0.1-10.3-0.2-15.5-0.2c-6.1,0-12.2,0-18.3,0
	H160.2c-6.1,0-12.2,0-18.3,0c-5.2,0-10.3,0.1-15.5,0.2c-11.2,0.3-22.5,1-33.6,3c-11.3,2-21.7,5.3-32,10.5
	c-10.1,5.1-19.3,11.8-27.2,19.8c-8,8-14.7,17.2-19.8,27.2C8.6,71,5.2,81.5,3.2,92.7c-2,11.1-2.7,22.4-3,33.6
	c-0.1,5.1-0.2,10.3-0.2,15.4c0,6.1,0,12.2,0,18.3v191.7c0,6.1,0,12.2,0,18.3c0,5.1,0.1,10.3,0.2,15.4c0.3,11.2,1,22.5,3,33.6
	c2,11.3,5.3,21.8,10.5,32c5.1,10.1,11.8,19.2,19.8,27.2c8,8,17.2,14.7,27.2,19.8c10.2,5.2,20.7,8.5,32,10.5c11.1,2,22.4,2.7,33.6,3
	c5.1,0.1,10.3,0.2,15.5,0.2c6.1,0,12.2,0,18.3,0h191.7c6.1,0,12.2,0,18.3,0c5.2,0,10.3-0.1,15.5-0.2c11.2-0.3,22.5-1,33.6-3
	c11.3-2,21.7-5.3,32-10.5c10.1-5.1,19.3-11.8,27.2-19.8c8-8,14.7-17.2,19.8-27.2c5.2-10.2,8.5-20.7,10.5-32c2-11.1,2.7-22.4,3-33.6
	c0.1-5.1,0.2-10.3,0.2-15.4c0-6.1,0-12.2,0-18.3V160.2z"/>
	<clipPath id="clip">
		<use xlink:href="#ld"/>
	</clipPath>
</defs>
<g>
	<use xlink:href="#ld" stroke="#000000" stroke-opacity="0.125" stroke-width="2" vector-effect="non-scaling-stroke" fill="none" clip-path="url(#clip)"/>
</g>
</svg>
